<svg version="1.1" xmlns="http://www.w3.org/2000/svg" xmlns:xlink="http://www.w3.org/1999/xlink" width="640px" height="640px" viewBox="0,0,256,256"><g fill="#2c2c2c" fill-rule="nonzero" stroke="none" stroke-width="1" stroke-linecap="butt" stroke-linejoin="miter" stroke-miterlimit="10" stroke-dasharray="" stroke-dashoffset="0" font-family="none" font-weight="none" font-size="none" text-anchor="none" style="mix-blend-mode: normal"><g transform="translate(0,2.47851) scale(0.4,0.4)"><path d="M237.9,461.4c0,2 -2.3,3.6 -5.2,3.6c-3.3,0.3 -5.6,-1.3 -5.6,-3.6c0,-2 2.3,-3.6 5.2,-3.6c3,-0.3 5.6,1.3 5.6,3.6zM206.8,456.9c-0.7,2 1.3,4.3 4.3,4.9c2.6,1 5.6,0 6.2,-2c0.6,-2 -1.3,-4.3 -4.3,-5.2c-2.6,-0.7 -5.5,0.3 -6.2,2.3zM251,455.2c-2.9,0.7 -4.9,2.6 -4.6,4.9c0.3,2 2.9,3.3 5.9,2.6c2.9,-0.7 4.9,-2.6 4.6,-4.6c-0.3,-1.9 -3,-3.2 -5.9,-2.9zM316.8,72c-138.7,0 -244.8,105.3 -244.8,244c0,110.9 69.8,205.8 169.5,239.2c12.8,2.3 17.3,-5.6 17.3,-12.1c0,-6.2 -0.3,-40.4 -0.3,-61.4c0,0 -70,15 -84.7,-29.8c0,0 -11.4,-29.1 -27.8,-36.6c0,0 -22.9,-15.7 1.6,-15.4c0,0 24.9,2 38.6,25.8c21.9,38.6 58.6,27.5 72.9,20.9c2.3,-16 8.8,-27.1 16,-33.7c-55.9,-6.2 -112.3,-14.3 -112.3,-110.5c0,-27.5 7.6,-41.3 23.6,-58.9c-2.6,-6.5 -11.1,-33.3 2.6,-67.9c20.9,-6.5 69,27 69,27c20,-5.6 41.5,-8.5 62.8,-8.5c21.3,0 42.8,2.9 62.8,8.5c0,0 48.1,-33.6 69,-27c13.7,34.7 5.2,61.4 2.6,67.9c16,17.7 25.8,31.5 25.8,58.9c0,96.5 -58.9,104.2 -114.8,110.5c9.2,7.9 17,22.9 17,46.4c0,33.7 -0.3,75.4 -0.3,83.6c0,6.5 4.6,14.4 17.3,12.1c100,-33.2 167.8,-128.1 167.8,-239c0,-138.7 -112.5,-244 -251.2,-244zM169.2,416.9c-1.3,1 -1,3.3 0.7,5.2c1.6,1.6 3.9,2.3 5.2,1c1.3,-1 1,-3.3 -0.7,-5.2c-1.6,-1.6 -3.9,-2.3 -5.2,-1zM158.4,408.8c-0.7,1.3 0.3,2.9 2.3,3.9c1.6,1 3.6,0.7 4.3,-0.7c0.7,-1.3 -0.3,-2.9 -2.3,-3.9c-2,-0.6 -3.6,-0.3 -4.3,0.7zM190.8,444.4c-1.6,1.3 -1,4.3 1.3,6.2c2.3,2.3 5.2,2.6 6.5,1c1.3,-1.3 0.7,-4.3 -1.3,-6.2c-2.2,-2.3 -5.2,-2.6 -6.5,-1zM179.4,429.7c-1.6,1 -1.6,3.6 0,5.9c1.6,2.3 4.3,3.3 5.6,2.3c1.6,-1.3 1.6,-3.9 0,-6.2c-1.4,-2.3 -4,-3.3 -5.6,-2z"></path></g></g></svg>