<svg version="1.1" xmlns="http://www.w3.org/2000/svg" xmlns:xlink="http://www.w3.org/1999/xlink" width="640px" height="640px" viewBox="0,0,256,256"><g fill="#2c2c2c" fill-rule="nonzero" stroke="none" stroke-width="1" stroke-linecap="butt" stroke-linejoin="miter" stroke-miterlimit="10" stroke-dasharray="" stroke-dashoffset="0" font-family="none" font-weight="none" font-size="none" text-anchor="none" style="mix-blend-mode: normal"><g transform="translate(-0.1,0.04) scale(0.4,0.4)"><path d="M320.3,205c-63.5,-0.2 -115.1,51.2 -115.3,114.7c-0.2,63.5 51.2,115.1 114.7,115.3c63.5,0.2 115.1,-51.2 115.3,-114.7c0.2,-63.5 -51.2,-115.1 -114.7,-115.3zM319.7,245.4c41.2,-0.2 74.7,33.1 74.9,74.3c0.2,41.2 -33.1,74.7 -74.3,74.9c-41.2,0.2 -74.7,-33.1 -74.9,-74.3c-0.2,-41.2 33.1,-74.7 74.3,-74.9zM413.1,200.3c0,-14.8 12,-26.8 26.8,-26.8c14.8,0 26.8,12 26.8,26.8c0,14.8 -12,26.8 -26.8,26.8c-14.8,0 -26.8,-12 -26.8,-26.8zM542.8,227.5c-1.7,-35.9 -9.9,-67.7 -36.2,-93.9c-26.2,-26.2 -58,-34.4 -93.9,-36.2c-37,-2.1 -147.9,-2.1 -184.9,0c-35.8,1.7 -67.6,9.9 -93.9,36.1c-26.3,26.2 -34.4,58 -36.2,93.9c-2.1,37 -2.1,147.9 0,184.9c1.7,35.9 9.9,67.7 36.2,93.9c26.3,26.2 58,34.4 93.9,36.2c37,2.1 147.9,2.1 184.9,0c35.9,-1.7 67.7,-9.9 93.9,-36.2c26.2,-26.2 34.4,-58 36.2,-93.9c2.1,-37 2.1,-147.8 0,-184.8zM495,452c-7.8,19.6 -22.9,34.7 -42.6,42.6c-29.5,11.7 -99.5,9 -132.1,9c-32.6,0 -102.7,2.6 -132.1,-9c-19.6,-7.8 -34.7,-22.9 -42.6,-42.6c-11.7,-29.5 -9,-99.5 -9,-132.1c0,-32.6 -2.6,-102.7 9,-132.1c7.8,-19.6 22.9,-34.7 42.6,-42.6c29.5,-11.7 99.5,-9 132.1,-9c32.6,0 102.7,-2.6 132.1,9c19.6,7.8 34.7,22.9 42.6,42.6c11.7,29.5 9,99.5 9,132.1c0,32.6 2.7,102.7 -9,132.1z"></path></g></g></svg>